<svg width="28" height="28" viewBox="0 0 28 28" fill="none" xmlns="http://www.w3.org/2000/svg">
<path d="M11.7173 3.67505C12.9823 2.65902 15.0125 2.6648 16.2964 3.68774L23.9331 9.79614V9.79712C24.374 10.1566 24.7562 10.72 25.0024 11.3645C25.2475 12.0059 25.3388 12.6781 25.2544 13.2385L23.7856 22.0315C23.4952 23.704 21.8675 25.0833 20.1831 25.0833H7.81689C6.10794 25.0833 4.51669 23.7378 4.22607 22.0442L2.75732 13.2502V13.2493L2.729 13.0325C2.68457 12.5156 2.77814 11.9281 2.99268 11.3655C3.23778 10.7228 3.62314 10.1606 4.07373 9.80103L4.07471 9.80005L11.7163 3.67505H11.7173ZM14.0005 16.0413C13.2 16.0413 12.5415 16.6997 12.5415 17.5002V21.0002C12.5417 21.8006 13.2001 22.4583 14.0005 22.4583C14.8007 22.4581 15.4583 21.8005 15.4585 21.0002V17.5002C15.4585 16.6999 14.8008 16.0415 14.0005 16.0413Z" fill="#FCC434" stroke="#FCC434" stroke-width="1.16667"/>
</svg>
