<svg width="28" height="28" viewBox="0 0 28 28" fill="none" xmlns="http://www.w3.org/2000/svg">
<path d="M22.7502 14.5834C22.7502 12.9734 24.0568 11.6667 25.6668 11.6667V10.5001C25.6668 5.83341 24.5002 4.66675 19.8335 4.66675H8.16683C3.50016 4.66675 2.3335 5.83341 2.3335 10.5001V11.0834C3.9435 11.0834 5.25016 12.3901 5.25016 14.0001C5.25016 15.6101 3.9435 16.9167 2.3335 16.9167V17.5001C2.3335 22.1667 3.50016 23.3334 8.16683 23.3334H19.8335C24.5002 23.3334 25.6668 22.1667 25.6668 17.5001C24.0568 17.5001 22.7502 16.1934 22.7502 14.5834Z" stroke="#CCCCCC" stroke-width="1.75" stroke-linecap="round" stroke-linejoin="round"/>
<path d="M11.6665 4.66675L11.6665 23.3334" stroke="#CCCCCC" stroke-width="1.75" stroke-linecap="round" stroke-linejoin="round" stroke-dasharray="5.83 5.83"/>
</svg>
