<svg width="28" height="28" viewBox="0 0 28 28" fill="none" xmlns="http://www.w3.org/2000/svg">
<path d="M8.16602 4.37463H10.208V6.41663C10.208 7.21702 10.8657 7.87446 11.666 7.87463C12.4665 7.87463 13.125 7.21713 13.125 6.41663V4.37463H19.833C22.3853 4.37463 23.8476 4.77214 24.7041 5.62854C25.5606 6.48502 25.958 7.94742 25.958 10.4996V11.6666C25.958 11.8228 25.8222 11.9586 25.666 11.9586C24.224 11.9588 23.041 13.1416 23.041 14.5836C23.0412 16.0255 24.2241 17.2084 25.666 17.2086C25.8221 17.2086 25.9578 17.3436 25.958 17.4996C25.958 20.0519 25.5605 21.5142 24.7041 22.3707C23.8476 23.2272 22.3854 23.6246 19.833 23.6246H13.125V21.5836C13.125 20.7831 12.4665 20.1246 11.666 20.1246C10.8657 20.1248 10.208 20.7832 10.208 21.5836V23.6246H8.16602C5.61381 23.6246 4.1514 23.2272 3.29492 22.3707C2.43863 21.5142 2.04102 20.0517 2.04102 17.4996V16.9166C2.04102 16.7605 2.17684 16.6246 2.33301 16.6246C3.77517 16.6246 4.95801 15.4418 4.95801 13.9996C4.95783 12.5576 3.77507 11.3746 2.33301 11.3746C2.17695 11.3746 2.0412 11.2396 2.04102 11.0836V10.4996C2.04105 7.94742 2.43844 6.48502 3.29492 5.62854C4.1514 4.77206 5.61381 4.37467 8.16602 4.37463ZM11.666 10.0104C10.8657 10.0106 10.208 10.668 10.208 11.4684V16.5319C10.2081 17.3321 10.8657 17.9897 11.666 17.9899C12.4664 17.9899 13.1249 17.3323 13.125 16.5319V11.4684C13.125 10.6679 12.4665 10.0104 11.666 10.0104Z" fill="#FCC434" stroke="#FCC434" stroke-width="1.16667"/>
</svg>
