<svg width="28" height="28" viewBox="0 0 28 28" fill="none" xmlns="http://www.w3.org/2000/svg">
<path d="M14.6185 23.8234H7.24516C3.5585 23.8234 2.3335 21.3734 2.3335 18.9118V9.08842C2.3335 5.40176 3.5585 4.17676 7.24516 4.17676H14.6185C18.3052 4.17676 19.5302 5.40176 19.5302 9.08842V18.9118C19.5302 22.5984 18.2935 23.8234 14.6185 23.8234Z" stroke="#CCCCCC" stroke-width="1.75" stroke-linecap="round" stroke-linejoin="round"/>
<path d="M22.7736 19.9499L19.5303 17.6749V10.3132L22.7736 8.03824C24.3603 6.92991 25.6669 7.60658 25.6669 9.55491V18.4449C25.6669 20.3932 24.3603 21.0699 22.7736 19.9499Z" stroke="#CCCCCC" stroke-width="1.75" stroke-linecap="round" stroke-linejoin="round"/>
<path d="M13.4165 12.8333C14.383 12.8333 15.1665 12.0498 15.1665 11.0833C15.1665 10.1168 14.383 9.33325 13.4165 9.33325C12.45 9.33325 11.6665 10.1168 11.6665 11.0833C11.6665 12.0498 12.45 12.8333 13.4165 12.8333Z" stroke="#CCCCCC" stroke-width="1.75" stroke-linecap="round" stroke-linejoin="round"/>
</svg>
