<svg width="28" height="28" viewBox="0 0 28 28" fill="none" xmlns="http://www.w3.org/2000/svg">
<path d="M7.58398 4.37463H14.584C16.4456 4.37467 17.6156 4.72565 18.3428 5.38831C19.0615 6.04347 19.4684 7.11611 19.5303 8.86389L19.5693 9.94299L20.4502 9.31995L22.1631 8.10803C22.7666 7.68508 23.2534 7.55673 23.6094 7.54163C23.9681 7.52644 24.2353 7.62445 24.3994 7.71252L24.4092 7.71741C24.5758 7.80277 24.811 7.96664 25.0059 8.26917C25.199 8.56919 25.375 9.04066 25.375 9.77698V18.2233C25.375 18.9594 25.199 19.4301 25.0059 19.7301C24.811 20.0328 24.5759 20.1974 24.4092 20.2828L24.4033 20.2858C24.2417 20.3708 23.9968 20.4635 23.6836 20.4635C23.3167 20.4635 22.8025 20.3459 22.166 19.8942L20.4502 18.6803L19.5693 18.0563L19.5303 19.1364C19.4684 20.8841 19.0616 21.9568 18.3428 22.6119C17.6156 23.2746 16.4456 23.6246 14.584 23.6246H7.58398C5.69162 23.6246 4.47927 22.9697 3.72949 22.0699C2.96487 21.1522 2.625 19.9122 2.625 18.6666V9.33362C2.625 7.39217 3.00742 6.2012 3.72949 5.47913C4.45156 4.75706 5.64253 4.37463 7.58398 4.37463ZM12.834 8.30627C11.3122 8.30627 10.0566 9.5461 10.0566 11.0836C10.0568 12.621 11.3123 13.86 12.834 13.86C14.3555 13.8598 15.6102 12.6209 15.6104 11.0836C15.6104 9.54621 14.3557 8.30645 12.834 8.30627Z" fill="#FCC434" stroke="#FCC434" stroke-width="1.16667"/>
</svg>
