<svg width="32" height="32" viewBox="0 0 32 32" fill="none" xmlns="http://www.w3.org/2000/svg">
<path d="M3.32031 21.3562C3.72454 21.3479 4.0216 21.6346 4.02246 22.0398C4.02446 23.0348 4.01775 24.0308 4.02441 25.0261C4.02913 25.7197 4.23873 26.3501 4.68164 26.8904C5.20166 27.5248 5.87843 27.8745 6.69336 27.9578C7.04222 27.9933 7.39411 27.9734 7.73926 27.9753C8.48787 27.9793 9.23334 27.9729 9.98145 27.9783C10.2541 27.9802 10.4604 28.1097 10.5771 28.3572C10.6951 28.6075 10.6649 28.8492 10.4951 29.071C10.402 29.1927 10.2702 29.2589 10.123 29.3064H6.5791C6.4502 29.2857 6.32364 29.2714 6.19824 29.2449C4.5984 28.9091 3.50078 27.9848 2.9248 26.45C2.86263 26.2844 2.81822 26.1144 2.78223 25.9421L2.69238 25.4197C2.6926 24.2383 2.69238 23.0565 2.69238 21.8748C2.75373 21.7062 2.83914 21.5791 2.94336 21.4929C3.04827 21.4062 3.1744 21.3592 3.32031 21.3562Z" fill="#F2F2F2" stroke="#DEDEDE" stroke-width="0.0533319"/>
<path d="M6.98535 2.69897C7.97338 2.70164 8.96231 2.69928 9.9502 2.69995C10.3544 2.7003 10.6427 2.98138 10.6426 3.36792C10.6424 3.75115 10.3497 4.0372 9.94727 4.03784C8.95983 4.03939 7.97118 4.02966 6.9834 4.04077C6.0295 4.05153 5.23567 4.42148 4.63965 5.17651C4.29093 5.61848 4.10128 6.12744 4.04102 6.68628C4.01414 6.93574 4.0241 7.18619 4.02344 7.43237C4.02122 8.28374 4.02504 9.13401 4.02148 9.98511C4.0202 10.263 3.89226 10.4738 3.64062 10.5925C3.38633 10.7125 3.14258 10.6787 2.91992 10.5027C2.80273 10.4101 2.73831 10.2814 2.69238 10.1375V6.59448C2.74532 6.24323 2.80035 5.89455 2.9248 5.56323C3.50125 4.02934 4.59623 3.10287 6.19727 2.76929C6.45566 2.71536 6.71927 2.69811 6.98535 2.69897Z" fill="#F2F2F2" stroke="#DEDEDE" stroke-width="0.0533319"/>
<path d="M28.3428 21.4218C28.5924 21.3029 28.8359 21.3319 29.0547 21.5048C29.2107 21.628 29.2965 21.7933 29.2969 21.993C29.2982 23.0779 29.3208 24.1622 29.2891 25.245C29.2604 26.2238 28.9025 27.0951 28.2578 27.8378C27.5183 28.6895 26.5773 29.1633 25.459 29.2928C25.4477 29.2941 25.4369 29.2969 25.4277 29.2997C25.4186 29.3025 25.4116 29.3044 25.4043 29.3065C24.2235 29.3059 23.0429 29.3065 21.8623 29.3065C21.681 29.2415 21.5498 29.1544 21.4648 29.0428C21.3799 28.9313 21.3386 28.7929 21.3408 28.6239C21.3457 28.2701 21.6366 27.9799 22.002 27.9774C22.6085 27.9732 23.2154 27.9767 23.8223 27.9764C24.2143 27.9764 24.6068 27.9768 24.999 27.9755C26.3379 27.9708 27.4571 27.1358 27.8398 25.8544C27.9181 25.5922 27.9583 25.3222 27.959 25.0487C27.9617 24.0497 27.96 23.0505 27.9609 22.0516C27.961 21.9069 27.9923 21.78 28.0547 21.6747C28.117 21.5696 28.2122 21.4839 28.3428 21.4218Z" fill="#F2F2F2" stroke="#DEDEDE" stroke-width="0.0533319"/>
<path d="M25.125 2.70483C26.6928 2.7749 27.9012 3.47309 28.7148 4.82007C29.1206 5.49204 29.3015 6.23303 29.2988 7.02026C29.2957 7.99716 29.2983 8.97419 29.2979 9.95093C29.2977 10.1601 29.2291 10.3368 29.1123 10.4607C28.9955 10.5845 28.8295 10.6577 28.6338 10.658C28.4365 10.6583 28.2688 10.5839 28.1504 10.4587C28.032 10.3335 27.961 10.1552 27.9609 9.94409C27.9603 8.96022 27.968 7.97531 27.958 6.99097C27.9492 6.1289 27.638 5.38846 26.9961 4.80151C26.5173 4.36379 25.9484 4.12429 25.3047 4.0564C25.0147 4.02578 24.7238 4.03991 24.4375 4.03882C23.6312 4.03571 22.8229 4.03909 22.0166 4.03687C21.6929 4.03582 21.4413 3.83833 21.3594 3.53003C21.2506 3.11952 21.5615 2.70413 21.9854 2.70093C22.524 2.69699 23.0626 2.69986 23.6016 2.69995V2.70093H23.6279C24.1286 2.70093 24.6273 2.68245 25.125 2.70483Z" fill="#F2F2F2" stroke="#DEDEDE" stroke-width="0.0533319"/>
<path d="M11.1416 21.6097C11.3202 21.1537 11.8774 21.0164 12.2432 21.3431C12.5901 21.6533 12.9565 21.9376 13.3682 22.1605C13.9808 22.4923 14.6338 22.6907 15.3271 22.7631C16.3089 22.8656 17.262 22.7612 18.1768 22.3744C18.7588 22.1283 19.2685 21.7716 19.7344 21.349C20.1329 20.9876 20.7564 21.1857 20.8672 21.7054C20.9208 21.9573 20.8527 22.1785 20.6621 22.3578C20.079 22.9062 19.422 23.3419 18.6836 23.6517C17.9495 23.9599 17.1836 24.1296 16.3877 24.1615C16.3538 24.1629 16.32 24.1663 16.2871 24.1693C16.2538 24.1724 16.2209 24.1758 16.1885 24.1771C16.123 24.1798 16.058 24.1771 15.9902 24.1771C14.208 24.1672 12.6462 23.5893 11.335 22.3695C11.1065 22.157 11.0392 21.8719 11.1416 21.6097Z" fill="#F2F2F2" stroke="#DEDEDE" stroke-width="0.0533319"/>
<path d="M15.9836 15.1511C15.9836 14.3442 15.9827 13.5373 15.984 12.7304C15.9847 12.3741 16.2598 12.0616 16.5984 12.0269C16.978 11.988 17.3083 12.2156 17.3852 12.5766C17.4052 12.6697 17.4106 12.7675 17.4106 12.8633C17.4121 14.4253 17.4123 15.9873 17.4112 17.5492C17.4108 18.0516 17.2976 18.5177 16.956 18.9065C16.6117 19.2982 16.1705 19.4887 15.6579 19.5198C15.4477 19.5327 15.2361 19.5258 15.0251 19.522C14.6684 19.5155 14.3661 19.2186 14.3432 18.8574C14.3201 18.4919 14.589 18.1601 14.9462 18.1087C15.1307 18.0821 15.3156 18.0965 15.5006 18.0938C15.8466 18.0889 15.9809 17.9576 15.9827 17.605C15.9853 17.0129 15.9836 16.4205 15.9836 15.8283C15.9836 15.6027 15.9836 15.3769 15.9836 15.1511Z" fill="#F2F2F2"/>
<path d="M9.90119 13.7001C9.90119 13.3747 9.89653 13.0493 9.90231 12.7241C9.90964 12.3178 10.2286 12.0113 10.62 12.0246C10.9114 12.0344 11.1775 12.2727 11.2404 12.5841C11.2542 12.6525 11.2622 12.7232 11.2624 12.793C11.2642 13.3956 11.2637 13.9982 11.2631 14.6008C11.2628 14.7947 11.2153 14.9749 11.0899 15.1272C10.9254 15.3272 10.7098 15.4099 10.4575 15.3621C10.2053 15.3144 10.0397 15.1521 9.94898 14.914C9.91453 14.8238 9.89964 14.7291 9.90008 14.6317C9.90142 14.3212 9.90053 14.0107 9.90053 13.7001C9.90075 13.7001 9.90097 13.7001 9.90119 13.7001Z" fill="#F2F2F2"/>
<path d="M22.2407 13.7051C22.2407 14.0271 22.2434 14.3492 22.2401 14.6711C22.2359 15.0712 21.9411 15.3728 21.561 15.3713C21.1912 15.3697 20.8955 15.0625 20.8938 14.6693C20.8909 14.0216 20.8909 13.3739 20.8938 12.7261C20.8955 12.3356 21.1952 12.0253 21.5628 12.0242C21.9393 12.0231 22.2361 12.3289 22.2401 12.7279C22.2434 13.0536 22.2407 13.3794 22.2407 13.7051Z" fill="#F2F2F2"/>
</svg>
